# xmcd
#
# Track frame offsets: 
#        150
#        20557
#        30765
#        47012
#        61377
#        88847
#        109255
#        126425
#        143102
#        156165
#        170335
#
# Disc length: 2423 seconds
#
# Revision: 0
# Processed by: cddbd v1.4PL0 Copyright (c) Steve Scherf et al.
# Submitted via: ExactAudioCopy v0.95a4
#
DISCID=8f09750b
DTITLE=Vernard Johnson - I'm Alive
DYEAR=1990
DGENRE=Gospel
TTITLE0=Lord help me to hold out
TTITLE1=What is this
TTITLE2=I'm alive
TTITLE3=Oh happy Day
TTITLE4=I love to praise His name
TTITLE5=When Troubles burden me down
TTITLE6=His Eye is on the Sparrow
TTITLE7=When the Battle is over
TTITLE8=Call Him on my Horn
TTITLE9=Waden in the Water
TTITLE10=God bless America
EXTD=
EXTT0=
EXTT1=
EXTT2=
EXTT3=
EXTT4=
EXTT5=
EXTT6=
EXTT7=
EXTT8=
EXTT9=
EXTT10=
PLAYORDER=
